<?xml version="1.0" encoding="utf-8"?>
<!-- Generator: Adobe Illustrator 27.5.0, SVG Export Plug-In . SVG Version: 6.00 Build 0)  -->
<svg version="1.1" id="Layer_2_00000015323510508986785400000002664360702696368261_"
	 xmlns="http://www.w3.org/2000/svg" xmlns:xlink="http://www.w3.org/1999/xlink" x="0px" y="0px" viewBox="0 0 437.4 145.4"
	 style="enable-background:new 0 0 437.4 145.4;" xml:space="preserve">
<style type="text/css">
	.st0{clip-path:url(#SVGID_00000152221954473249550160000016207948886259247526_);}
	.st1{fill:#E60B27;}
	.st2{fill:#FFFFFF;}
	.st3{enable-background:new    ;}
</style>
<g id="Layer_1-2">
	<g id="Web_Logo_SVG">
		<g id="Group_106">
			<g>
				<defs>
					<rect id="SVGID_1_" x="1" y="19" width="202.6" height="111"/>
				</defs>
				<clipPath id="SVGID_00000011023233053676427980000000032273794137016451_">
					<use xlink:href="#SVGID_1_"  style="overflow:visible;"/>
				</clipPath>
				<g style="clip-path:url(#SVGID_00000011023233053676427980000000032273794137016451_);">
					<g id="Group_105">
						<path id="Path_76" class="st1" d="M63.4,80.1c8.9,0,17.7,0,26.6,0c3.1,0.2,5.8-2.2,6-5.3c0.1-0.8-0.1-1.5-0.3-2.3
							c-0.8-2.4-2.8-3.8-5.9-3.8c-8.3,0-16.6,0-24.9,0c-1.5,0-2.9,0-4.4,0c-2.9,0-5.3-2.3-5.3-5.2c0,0,0,0,0-0.1
							c-0.1-3.3,1.9-5.6,5-5.8c0.7,0,1.3,0,2,0c15.4,0,30.7,0,46.1,0c1.1,0,2.1,0,3.2-0.2c2.7-0.6,4.6-3.2,4.2-6
							c-0.1-2.9-2.5-5.1-5.3-5.1c-6.4,0-12.8,0-19.3,0c-0.7,0-1.5,0-2.2-0.2c-2.9-0.3-5-2.9-4.8-5.7c0.1-3,2.5-5.4,5.5-5.3
							c0,0,0.1,0,0.1,0c5.4,0,10.8,0,16.2,0c1.3,0,2.5-0.4,3.4-1.3c9.3-8.5,20.2-13.6,32.8-14.5c23.7-1.7,42,7.6,54,27.9
							c19.2,32.5,0.1,73.4-36.3,81.5c-10,2.3-20.4,1.8-30.1-1.4c-7.7-2.4-14.7-6.6-20.6-12.1c-0.8-0.8-2-1.3-3.2-1.2
							c-11.6,0-23.2,0-34.9,0c-2.9,0-5.1-1.5-5.8-3.9c-0.8-2.9,0.7-7,4.9-7.2c0.6,0,1.2-0.1,1.8-0.1c10.1,0,20.2,0,30.2,0
							c3.1,0,5-1.2,5.8-3.6c1.4-4-1.1-7.6-5.4-7.7c-4.8-0.1-9.6,0-14.4,0c-16.7,0-33.5,0-50.2,0c-1,0-2-0.1-3-0.3
							c-2.8-0.8-4.3-3.1-3.9-6.2c0.3-2.8,2.7-4.8,5.5-4.6c7.8,0,15.7,0,23.5,0L63.4,80.1L63.4,80.1z"/>
						<path id="Path_77" class="st1" d="M24.1,57.6c5.7,0,11.4,0,17,0c2-0.2,4,0.9,4.9,2.7c1.1,2,1,4.3-0.3,6.2
							c-0.9,1.4-2.5,2.2-4.1,2.2c-11.8,0-23.6,0-35.5,0c-3,0-5.1-2.5-5.1-5.6c-0.1-2.9,2.2-5.4,5.2-5.5c0,0,0,0,0,0L24.1,57.6"/>
						<path id="Path_78" class="st1" d="M64.8,46.1c-2.8,0-5.7,0.1-8.5,0c-4-0.2-6.2-3.3-5.2-7.1c0.5-2.4,2.7-4,5.1-3.9
							c5.4-0.1,10.9-0.1,16.3,0c2.2-0.1,4.2,1.4,4.9,3.5c0.9,2.1,0.3,4.6-1.4,6.2c-0.9,0.8-2,1.2-3.1,1.3
							C70.1,46.2,67.4,46.1,64.8,46.1L64.8,46.1"/>
						<path id="Path_79" class="st2" d="M127.3,65.5l53.4-25.9l-27.3,30.8L171.2,83l-52.6,26.4L145.5,78
							C145.5,78,127.3,65.5,127.3,65.5z"/>
					</g>
				</g>
			</g>
		</g>
		<g id="News">
			<g class="st3">
				<path class="st2" d="M276.6,48.6V113h-12.2L238,70.6V113h-13.2V48.6h12.8l25.9,41.7V48.6H276.6z"/>
				<path class="st2" d="M329.9,94.3h-32c1,6.5,4.8,9.8,11.3,9.8c2.7,0,5-0.5,7-1.4c2-0.9,3.9-2.5,5.8-4.6l6.3,6.1
					c-1.8,2.9-4.5,5.3-8,7.1c-3.6,1.8-7.5,2.7-11.8,2.7c-7.2,0-12.8-2.1-16.7-6.3c-4-4.2-6-10-6-17.4c0-7.5,2-13.4,6-17.7
					c4-4.3,9.6-6.4,16.6-6.4c6.7,0,12,2.1,15.8,6.3c3.8,4.2,5.7,10.1,5.7,17.7V94.3z M318.4,85.7c0-3.1-0.9-5.6-2.7-7.4
					c-1.8-1.8-4.3-2.7-7.5-2.7c-2.9,0-5.2,0.9-7,2.8c-1.8,1.9-2.9,4.5-3.4,7.9h20.6V85.7z"/>
				<path class="st2" d="M396.6,67l-11.8,46h-10.3l-9.2-33.3l-9.2,33.3h-10.4L334,67h12.2l5.8,28.6l8.1-28.6h10.4l8.1,28.6l5.8-28.6
					H396.6z"/>
				<path class="st2" d="M406.7,111.5c-3-1.6-5.2-3.7-6.4-6.3l7.3-5.1c1.1,1.5,2.5,2.8,4.2,3.7c1.7,0.9,3.5,1.4,5.2,1.4
					c2.1,0,3.8-0.5,5.2-1.6c1.3-1.1,2-2.4,2-4c0-1.3-0.5-2.3-1.5-3.1c-1-0.8-3.1-1.8-6.3-3c-5.6-2.1-9.5-4.3-11.8-6.5
					c-2.3-2.2-3.4-4.9-3.4-8.2c0-3.8,1.5-6.9,4.6-9.2c3.1-2.3,7.2-3.5,12.4-3.5c3.4,0,6.5,0.7,9.3,2c2.8,1.3,5,3.2,6.7,5.7l-6.8,5.1
					c-2.1-2.6-5.1-4-8.7-4c-1.8,0-3.3,0.3-4.3,1c-1,0.6-1.5,1.6-1.5,2.8c0,0.9,0.2,1.6,0.6,2.1c0.4,0.6,1.3,1.1,2.5,1.7
					c1.2,0.6,3.2,1.4,5.9,2.5c3.6,1.4,6.4,2.8,8.4,4.1c2,1.3,3.4,2.8,4.2,4.3c0.8,1.6,1.2,3.4,1.2,5.7c0,2.9-0.8,5.5-2.3,7.8
					c-1.6,2.2-3.8,4-6.6,5.2c-2.8,1.3-6.1,1.9-9.8,1.9C413.2,113.9,409.7,113.1,406.7,111.5z"/>
			</g>
		</g>
	</g>
</g>
</svg>
