<?xml version="1.0" encoding="utf-8"?>
<!-- Generator: Adobe Illustrator 27.5.0, SVG Export Plug-In . SVG Version: 6.00 Build 0)  -->
<svg version="1.1" id="Layer_2_00000175282928791788813360000003240919887936325013_"
	 xmlns="http://www.w3.org/2000/svg" xmlns:xlink="http://www.w3.org/1999/xlink" x="0px" y="0px" viewBox="0 0 437.4 145.4"
	 style="enable-background:new 0 0 437.4 145.4;" xml:space="preserve">
<style type="text/css">
	.st0{clip-path:url(#SVGID_00000124130309639598263270000006661947757151327413_);}
	.st1{fill:#E60B27;}
	.st2{fill:#FFFFFF;}
	.st3{enable-background:new    ;}
	.st4{fill:#0A223F;}
</style>
<g id="Layer_1-2">
	<g id="Web_Logo_SVG">
		<g id="Group_106">
			<g>
				<defs>
					<rect id="SVGID_1_" x="1.2" y="17.2" width="202.6" height="111"/>
				</defs>
				<clipPath id="SVGID_00000021827620205849249170000011821426192874304652_">
					<use xlink:href="#SVGID_1_"  style="overflow:visible;"/>
				</clipPath>
				<g style="clip-path:url(#SVGID_00000021827620205849249170000011821426192874304652_);">
					<g id="Group_105">
						<path id="Path_76" class="st1" d="M63.6,78.3c8.9,0,17.7,0,26.6,0c3.1,0.2,5.8-2.2,6-5.3c0.1-0.8-0.1-1.6-0.3-2.3
							C95.1,68.3,93,67,90,67c-8.3,0-16.6,0-24.9,0c-1.5,0-2.9,0-4.4,0c-2.9,0-5.3-2.3-5.3-5.2c0,0,0,0,0-0.1
							c-0.1-3.3,1.9-5.6,5-5.8c0.7,0,1.3,0,2,0c15.4,0,30.7,0,46.1,0c1.1,0,2.1,0,3.2-0.2c2.7-0.6,4.6-3.2,4.2-6
							c-0.1-2.8-2.5-5.1-5.3-5.1c-6.4,0-12.8,0-19.3,0c-0.7,0-1.5,0-2.2-0.2c-2.9-0.3-5-2.8-4.8-5.7c0.1-3,2.5-5.4,5.5-5.3
							c0,0,0.1,0,0.1,0c5.4,0,10.8,0,16.2,0c1.3,0,2.5-0.4,3.4-1.3c9.3-8.5,20.3-13.6,32.8-14.5c23.7-1.7,42,7.6,54,27.9
							c19.2,32.5,0.1,73.4-36.3,81.5c-10,2.3-20.4,1.8-30.1-1.4c-7.7-2.4-14.7-6.6-20.6-12.1c-0.8-0.8-2-1.3-3.2-1.2
							c-11.6,0-23.2,0-34.9,0c-2.9,0-5.1-1.5-5.8-3.9c-0.8-2.9,0.7-7,4.9-7.2c0.6,0,1.2-0.1,1.8-0.1c10.1,0,20.2,0,30.2,0
							c3.1,0,5-1.2,5.8-3.6c1.4-4-1.1-7.6-5.4-7.7c-4.8-0.1-9.6,0-14.4,0c-16.7,0-33.5,0-50.2,0c-1,0-2-0.1-3-0.3
							c-2.8-0.8-4.3-3.1-3.9-6.2c0.3-2.8,2.7-4.8,5.5-4.6c7.8,0,15.7,0,23.5,0L63.6,78.3L63.6,78.3z"/>
						<path id="Path_77" class="st1" d="M24.3,55.8c5.7,0,11.4,0,17,0c2-0.2,4,0.9,4.9,2.7c1.1,2,1,4.3-0.3,6.2
							c-0.9,1.4-2.5,2.2-4.1,2.2c-11.8,0-23.6,0-35.5,0c-3,0-5.1-2.5-5.1-5.6c-0.1-2.9,2.2-5.4,5.2-5.5c0,0,0,0,0,0L24.3,55.8"/>
						<path id="Path_78" class="st1" d="M65,44.4c-2.8,0-5.7,0.1-8.5,0c-4-0.2-6.2-3.3-5.2-7.1c0.5-2.3,2.7-4,5.1-3.9
							c5.4-0.1,10.9-0.1,16.3,0c2.2-0.1,4.2,1.4,4.9,3.5c0.9,2.2,0.3,4.7-1.4,6.2c-0.9,0.8-2,1.2-3.1,1.3
							C70.4,44.5,67.7,44.3,65,44.4L65,44.4"/>
						<path id="Path_79" class="st2" d="M127.5,63.8l53.4-26l-27.3,30.8l17.8,12.6l-52.6,26.4l26.9-31.3
							C145.8,76.3,127.5,63.8,127.5,63.8z"/>
					</g>
				</g>
			</g>
		</g>
		<g id="News">
			<g class="st3">
				<path class="st4" d="M276.9,46.8v64.4h-12.2l-26.4-42.3v42.3h-13.2V46.8h12.8l25.9,41.7V46.8H276.9z"/>
				<path class="st4" d="M330.2,92.5h-32c1,6.5,4.8,9.8,11.3,9.8c2.7,0,5-0.5,7-1.4c2-0.9,3.9-2.5,5.8-4.6l6.3,6.1
					c-1.8,2.9-4.5,5.3-8,7.1c-3.6,1.8-7.5,2.7-11.8,2.7c-7.2,0-12.8-2.1-16.7-6.3c-4-4.2-6-10-6-17.4c0-7.5,2-13.4,6-17.7
					c4-4.3,9.6-6.4,16.6-6.4c6.7,0,12,2.1,15.8,6.3c3.8,4.2,5.7,10.1,5.7,17.7V92.5z M318.7,84c0-3.1-0.9-5.6-2.7-7.4
					c-1.8-1.8-4.3-2.7-7.5-2.7c-2.9,0-5.2,0.9-7,2.8c-1.8,1.9-2.9,4.5-3.4,7.9h20.6V84z"/>
				<path class="st4" d="M396.9,65.2l-11.8,46h-10.3l-9.2-33.3l-9.2,33.3H346l-11.8-46h12.2l5.8,28.6l8.1-28.6h10.4l8.1,28.6
					l5.8-28.6H396.9z"/>
				<path class="st4" d="M406.9,109.7c-3-1.6-5.2-3.7-6.4-6.3l7.3-5.1c1.1,1.5,2.5,2.8,4.2,3.7s3.5,1.4,5.2,1.4
					c2.1,0,3.8-0.5,5.2-1.6c1.3-1.1,2-2.4,2-4c0-1.3-0.5-2.3-1.5-3.1c-1-0.8-3.1-1.8-6.3-3c-5.6-2.1-9.5-4.3-11.8-6.5
					s-3.4-4.9-3.4-8.2c0-3.8,1.5-6.9,4.6-9.2c3.1-2.3,7.2-3.5,12.4-3.5c3.4,0,6.5,0.7,9.3,2c2.8,1.3,5,3.2,6.7,5.7l-6.8,5.1
					c-2.1-2.6-5.1-4-8.7-4c-1.8,0-3.3,0.3-4.3,1c-1,0.6-1.5,1.6-1.5,2.8c0,0.9,0.2,1.6,0.6,2.1c0.4,0.6,1.3,1.1,2.5,1.7
					c1.2,0.6,3.2,1.4,5.9,2.5c3.6,1.4,6.4,2.8,8.4,4.1c2,1.3,3.4,2.8,4.2,4.3c0.8,1.6,1.2,3.4,1.2,5.7c0,2.9-0.8,5.5-2.3,7.8
					c-1.6,2.2-3.8,4-6.6,5.2c-2.8,1.3-6.1,1.9-9.8,1.9C413.5,112.1,410,111.3,406.9,109.7z"/>
			</g>
		</g>
	</g>
</g>
</svg>
